<svg xmlns="http://www.w3.org/2000/svg" width="301" height="550" viewBox="0 0 301 550" fill="none"><path d="M0.724372 550L0.373905 541.484L0.0234375 532.613C0.0234375 490.742 8.43465 450.645 25.2571 412.323C42.0795 374 68.1309 336.269 103.411 299.129L131.449 271.452C154.813 248.978 170.351 232.065 178.061 220.71C184.837 210.538 189.977 199.183 193.481 186.645C196.986 173.871 198.738 159.559 198.738 143.71C198.738 120.527 194.65 103.376 186.472 92.2581C178.294 81.1398 165.678 75.5806 148.622 75.5806C130.865 75.5806 117.78 82.4409 109.369 96.1613C100.958 109.882 96.7524 131.763 96.7524 161.806L97.1029 174.935L97.4533 183.097H3.52811L3.17764 173.516L2.82718 165C2.82718 108.226 14.7431 66.5914 38.5748 40.0968C62.6403 13.3656 100.257 0 151.425 0C199.79 0 236.589 11.9462 261.823 35.8387C287.29 59.7312 300.023 94.2688 300.023 139.452C300.023 160.978 297.804 180.376 293.365 197.645C288.925 214.914 281.799 231.828 271.986 248.387C264.509 261.161 247.804 280.914 221.869 307.645L190.678 340.29C139.276 398.011 109.953 438.817 102.71 462.71H293.715V550H0.724372Z" fill="#D3AE32"></path></svg>