<svg xmlns="http://www.w3.org/2000/svg" width="301" height="550" viewBox="0 0 301 550" fill="none"><path d="M0.899523 359.468H93.9551V365.738C93.9551 405.911 98.006 434.009 106.108 450.032C114.21 465.822 128.214 473.718 148.122 473.718C167.335 473.718 180.992 466.751 189.094 452.818C197.427 438.653 201.594 413.458 201.594 377.232C201.594 341.007 196.617 317.089 186.663 305.478C176.941 293.867 157.96 288.062 129.719 288.062L114.094 288.41L101.941 288.759V218.746H108.886C140.367 218.746 162.126 213.405 174.163 202.723C186.2 192.041 192.219 172.187 192.219 143.16C192.219 116.456 188.631 97.9945 181.455 87.7771C174.511 77.3274 162.474 72.1026 145.344 72.1026C128.677 72.1026 116.64 77.908 109.233 89.5187C105.761 95.0918 103.099 102.639 101.247 112.16C99.3949 121.448 98.469 132.827 98.469 146.295V158.835H5.76063C5.76063 155.816 5.52915 153.378 5.06619 151.52V138.98C5.06619 93.0019 17.219 58.4019 41.5245 35.1805C65.8301 11.7268 101.825 0 149.511 0C193.724 0 227.867 11.959 251.941 35.8771C276.015 59.7952 288.052 93.9308 288.052 138.284C288.052 168.239 282.844 192.738 272.427 211.78C262.011 230.589 246.617 243.477 226.247 250.443C251.015 256.713 269.534 270.298 281.802 291.197C294.071 311.864 300.205 340.543 300.205 377.232C300.205 434.822 287.358 478.013 261.663 506.808C236.2 535.603 197.427 550 145.344 550C96.0384 550 59.4643 536.183 35.6217 508.55C12.0106 480.916 0.205078 438.305 0.205078 380.716L0.5523 370.266L0.899523 359.468Z" fill="#D3AE32"></path></svg>