<svg xmlns="http://www.w3.org/2000/svg" width="301" height="550" viewBox="0 0 301 550" fill="none"><path d="M0.943359 364.07H94.386V378.59C94.386 410.228 98.9527 434.31 108.086 450.837C117.22 467.128 130.92 475.274 149.187 475.274C167.688 475.274 181.154 465.712 189.585 446.587C198.016 427.463 202.231 396.416 202.231 353.445C202.231 314.488 197.548 286.156 188.18 268.448C179.046 250.504 164.058 241.533 143.215 241.533C129.398 241.533 118.039 245.546 109.14 253.574C100.241 261.601 95.0886 272.344 93.6834 285.802H5.86139L20.2642 0H276.353V87.1217H95.0886L89.468 196.555C98.8356 186.403 109.491 178.847 121.435 173.889C133.613 168.695 147.665 166.098 163.59 166.098C209.257 166.098 243.566 181.208 266.517 211.429C289.468 241.414 300.943 286.51 300.943 346.716C300.943 417.311 288.648 468.899 264.058 501.481C239.468 533.827 200.241 550 146.377 550C96.7279 550 60.0768 535.952 36.4235 507.856C12.7701 479.76 0.943359 436.435 0.943359 377.882V364.07Z" fill="#D3AE32"></path></svg>