<svg xmlns="http://www.w3.org/2000/svg" width="134" height="29.43" viewBox="0 0 134 29.43"><g transform="translate(-0.762)"><path d="M3.861,28.249V12.392H.762V8.287h3.1V7.118c0-3.863,2.817-6.639,7.325-6.639H13.48V4.423H11.387c-2.093,0-3.059,1.007-3.059,2.857V8.287H13.8v4.105H8.328V28.249Z" transform="translate(0 -0.036)" fill="#fdfdfd"></path><path d="M15.432,18.872A10.344,10.344,0,0,1,25.977,8.488a10.385,10.385,0,1,1,0,20.768A10.369,10.369,0,0,1,15.432,18.872Zm16.582,0a6.059,6.059,0,1,0-12.115,0,6.059,6.059,0,1,0,12.115,0Z" transform="translate(-1.107 -0.64)" fill="#fdfdfd"></path><path d="M73.521,28.853V8.891h4.266v2.053a7.474,7.474,0,0,1,5.876-2.456c4.91,0,8.413,3.5,8.413,9.015v11.35H87.608V17.906c0-3.26-1.771-5.191-4.669-5.191s-4.95,2.013-4.95,5.191V28.853Z" transform="translate(-5.489 -0.64)" fill="#fdfdfd"></path><path d="M96.549,18.267A10.066,10.066,0,0,1,106.612,7.884a8.185,8.185,0,0,1,6.478,2.857V.479h4.468v27.77h-4.266V25.593a8.161,8.161,0,0,1-6.681,3.059A10.066,10.066,0,0,1,96.549,18.267Zm16.582,0a6.059,6.059,0,1,0-12.115,0,6.059,6.059,0,1,0,12.115,0Z" transform="translate(-7.226 -0.036)" fill="#fdfdfd"></path><path d="M123.625,2.576a2.575,2.575,0,1,1,5.151,0,2.576,2.576,0,0,1-5.151,0Zm.322,25.637V8.251h4.468V28.213Z" transform="translate(-9.269)" fill="#fdfdfd"></path><path d="M141.569,28.479c-4.547,0-6.722-1.972-6.722-6.118v-9.74h-3.3V8.515h2.295a.989.989,0,0,0,1.006-1.128V3.526h4.468V8.517h5.313v4.106h-5.312v9.3c0,1.57.765,2.375,2.575,2.375h2.738v4.185Z" transform="translate(-9.867 -0.266)" fill="#fdfdfd"></path><path d="M40,10.847c-.01.144-.031.479-.051.951s-.035,1.087-.035,1.8a41.246,41.246,0,0,0,.229,4.431,27.917,27.917,0,0,0,.659,3.774,17.816,17.816,0,0,0,.915,2.74,10.027,10.027,0,0,0,2.339,3.44,6.74,6.74,0,0,0,3.847,1.76l.055,0c.265.015.53.021.791.021A14.145,14.145,0,0,0,54.164,28.7a17.079,17.079,0,0,0,4.03-2.372,27.069,27.069,0,0,0,5.524-6.067,49.7,49.7,0,0,0,5.062-9.8A49.4,49.4,0,0,0,70.4,5.685a.9.9,0,0,0-1.745-.463c-.006.024-.4,1.485-1.2,3.655a46.13,46.13,0,0,1-6.478,12.077,21.275,21.275,0,0,1-5.4,5.006,13.725,13.725,0,0,1-3.226,1.476,12.261,12.261,0,0,1-3.6.535q-.343,0-.693-.019l-.049.9.1-.895a4.968,4.968,0,0,1-1.819-.566,5.322,5.322,0,0,1-1.273-.979,8.719,8.719,0,0,1-1.677-2.646,20.338,20.338,0,0,1-1.323-5.232,38.4,38.4,0,0,1-.3-4.933c0-.686.016-1.277.033-1.728s.039-.765.049-.907a.9.9,0,0,0-1.8-.116Z" transform="translate(-2.954 -0.343)" fill="#fdfdfd"></path><path d="M39.95,10.9a24.654,24.654,0,0,0-.188,3.174,23.541,23.541,0,0,0,.26,3.583,15.379,15.379,0,0,0,.718,2.885,10.266,10.266,0,0,0,.988,2.035,7.212,7.212,0,0,0,2.479,2.414,7.549,7.549,0,0,0,3.813.945,11.127,11.127,0,0,0,4.193-.835,16.956,16.956,0,0,0,5.946-4.342,37.345,37.345,0,0,0,5.736-8.684,44.391,44.391,0,0,0,1.974-4.609.949.949,0,0,0-1.795-.617l.146.051-.146-.051.146.051-.146-.051c0,.015-.386,1.121-1.121,2.766a39.187,39.187,0,0,1-5.563,9.152A17.906,17.906,0,0,1,53.1,22.537a10.987,10.987,0,0,1-2.445,1.1,8.991,8.991,0,0,1-2.634.4,6.285,6.285,0,0,1-1.86-.259,4.8,4.8,0,0,1-1.254-.585A5.423,5.423,0,0,1,43.3,21.51a10.5,10.5,0,0,1-1.315-3.635,20.853,20.853,0,0,1-.325-3.8c0-.854.043-1.59.086-2.108.02-.259.042-.463.058-.6q.011-.105.019-.155a.218.218,0,0,1,0-.038v-.007l-.319-.044.319.045-.319-.045.319.045a.949.949,0,1,0-1.88-.265Z" transform="translate(-2.942 -0.468)" fill="#fdfdfd"></path><path d="M39.954,11.208v.022a16.516,16.516,0,0,0,.127,1.856,17.635,17.635,0,0,0,.514,2.631,12.721,12.721,0,0,0,.828,2.2,9.233,9.233,0,0,0,.975,1.576,6.589,6.589,0,0,0,5.418,2.63,8.176,8.176,0,0,0,2.954-.561,11.99,11.99,0,0,0,4.175-2.888,24.846,24.846,0,0,0,4.015-5.712,27.813,27.813,0,0,0,1.391-3.032.949.949,0,0,0-1.779-.66c-.008.024-.278.744-.788,1.8a25.252,25.252,0,0,1-3.8,5.847,11.85,11.85,0,0,1-2.862,2.372,6.633,6.633,0,0,1-3.312.929,5.123,5.123,0,0,1-1.909-.341,4.479,4.479,0,0,1-1.254-.757,6.389,6.389,0,0,1-1.554-2.1,13.056,13.056,0,0,1-1.079-3.746,15.617,15.617,0,0,1-.168-2.049v-.009a.949.949,0,0,0-1.9-.015Z" transform="translate(-2.957 -0.653)" fill="#fdfdfd"></path></g></svg>