<svg xmlns="http://www.w3.org/2000/svg" width="134" height="32.09" viewBox="0 0 134 32.09"><g transform="translate(0 -450.654)"><path d="M689.624,557.981c0,3.743-3.024,6.323-6.8,6.323h-9.268V542.5h8.612c3.68,0,6.647,2.489,6.647,6.133a5.387,5.387,0,0,1-2.063,4.362,5.539,5.539,0,0,1,2.871,4.992Zm-11.761-11.46v4.8h4.307a2.4,2.4,0,0,0,0-4.8ZM685.35,557.7a2.464,2.464,0,0,0-2.525-2.553h-4.963v5.137h4.963A2.473,2.473,0,0,0,685.35,557.7Zm15.663-9.285v4.488c-2.09-.247-4.742.687-4.742,3.958V564.3h-4.027V548.733h4.021v2.68A4.813,4.813,0,0,1,701.013,548.419Zm17.626.314v15.576h-4.027v-1.84a6.2,6.2,0,0,1-5.082,2.275c-4.154,0-7.582-3.581-7.582-8.226s3.429-8.22,7.582-8.22a6.19,6.19,0,0,1,5.082,2.276v-1.841Zm-4.027,7.785a4.319,4.319,0,1,0-4.331,4.394A4.184,4.184,0,0,0,714.611,556.518Zm22.247-1.772v9.563h-4.022v-9.064a2.9,2.9,0,0,0-3.093-3.209c-1.964,0-3.429,1.149-3.429,3.858v8.41h-4.027V548.733h4.027v1.74a5.307,5.307,0,0,1,4.647-2.176c3.308,0,5.9,2.3,5.9,6.449Zm2.619,1.772a8.047,8.047,0,0,1,8.238-8.22,7.849,7.849,0,0,1,6.988,4.016l-3.465,2.023a3.856,3.856,0,0,0-3.554-2.085,4.252,4.252,0,0,0,0,8.5,3.845,3.845,0,0,0,3.587-2.056l3.49,1.993a8.207,8.207,0,0,1-15.284-4.174Zm31.976-1.772v9.563h-4.022v-9.064a2.9,2.9,0,0,0-3.087-3.209c-1.968,0-3.433,1.149-3.433,3.858v8.41h-4.027V542.5h4.027v7.973a5.3,5.3,0,0,1,4.647-2.176c3.308,0,5.9,2.3,5.9,6.449Z" transform="translate(-637.454 -86.923)" fill="#fdfdfd"></path><path d="M21.418,466.34a9.172,9.172,0,0,0,2.688-6.606,9.277,9.277,0,0,0-9.325-9.081H2.436A2.435,2.435,0,0,0,0,453.086v27.226a2.435,2.435,0,0,0,2.436,2.432H15.578a9.29,9.29,0,0,0,9.341-9.159A9.17,9.17,0,0,0,21.418,466.34Zm-5.866,7.209a4.057,4.057,0,1,1-4.856-3.974v-5.752a4.053,4.053,0,1,1,1.6,0v5.752a4.058,4.058,0,0,1,3.26,3.978v0Z" fill="#fdfdfd"></path></g></svg>