<svg xmlns="http://www.w3.org/2000/svg" width="133" height="25.623" viewBox="0 0 133 25.623"><g transform="translate(-11.775 -17.162)"><path d="M16.474,28.254a4.627,4.627,0,1,1-.062,0h.062M21.1,21.87a4.664,4.664,0,1,0-4.708,4.619h.053A4.655,4.655,0,0,0,21.1,21.87" fill="#fdfdfd"></path><path d="M218.439,22.951a4.633,4.633,0,1,1,0,.062q0-.031,0-.062M331.216,38.289H316.694l-.55-2.908,6.712-6.02c1.862-1.685,2.988-2.97,2.988-4.655s-1.232-2.766-3.183-2.766a6.454,6.454,0,0,0-4.788,2.66l-1.951-3.023c.257-.6,2.66-3.254,7.173-3.254s7.2,2.367,7.2,5.825-2.58,5.506-4.158,6.907l-4.105,3.679h9.185Zm9.176,0h-4.477V21.772h-3.591V18.6h8.068Z" transform="translate(-195.617 -1.099)" fill="#fdfdfd"></path><path d="M535.131,43.467a5.515,5.515,0,0,1-4.788-2.456h-.053v2.137h-2.66V23.465h2.722V31.71h.053a5.577,5.577,0,0,1,4.77-2.323c3.99,0,6.561,2.979,6.561,6.978s-2.571,7.093-6.614,7.093m-.479-11.889c-2.722,0-4.362,2.057-4.362,4.761s1.631,4.8,4.362,4.8,4.336-2.084,4.336-4.8-1.676-4.761-4.336-4.761m16.952.541h-.106a3.6,3.6,0,0,0-1.49-.284,2.837,2.837,0,0,0-2.279,1.108,5.993,5.993,0,0,0-.833,3.422v6.765H544.13V29.6h2.757v2.084h.089a3.546,3.546,0,0,1,3.334-2.3,3.8,3.8,0,0,1,1.436.231Zm3.085-5.275a1.684,1.684,0,1,1,.091,0l-.091,0m1.383,16.323h-2.8V29.6h2.758Zm16.385,0h-2.66V40.984h-.053a5.541,5.541,0,0,1-4.788,2.483c-4.043,0-6.632-3.085-6.632-7.093s2.562-6.986,6.552-6.986a5.506,5.506,0,0,1,4.761,2.367h.053v-8.29H572.4V43.157Zm-7-11.588c-2.722,0-4.336,2.057-4.336,4.761s1.6,4.8,4.336,4.8,4.336-2.084,4.336-4.8-1.614-4.761-4.336-4.761M588.921,40.3c0,3-.488,4.655-1.489,5.852a7.241,7.241,0,0,1-6.082,2.6,10.507,10.507,0,0,1-6.082-2.021l1.294-1.915a8.635,8.635,0,0,0,4.876,1.711,4.575,4.575,0,0,0,3.741-1.481,6.046,6.046,0,0,0,1.037-3.795v-.692h-.062a5.488,5.488,0,0,1-4.761,2.429,6.446,6.446,0,0,1-6.579-6.309q-.005-.254.009-.509a6.446,6.446,0,0,1,6.1-6.775q.235-.012.471-.008a5.453,5.453,0,0,1,4.761,2.394h.089V29.645h2.722V40.3Zm-6.978-8.76c-2.784,0-4.335,2.057-4.335,4.619s1.552,4.593,4.335,4.593,4.336-2.021,4.336-4.593-1.516-4.619-4.336-4.619m22.6,5.479h-10.5a4.185,4.185,0,0,0,4.054,4.312q.168.005.335,0a7.519,7.519,0,0,0,4.477-1.569l1.144,1.569c-.168.142-1.924,2.137-5.993,2.137s-6.827-2.793-6.827-7.093a6.747,6.747,0,0,1,6.5-6.985q.216-.008.433,0a6.206,6.206,0,0,1,6.456,5.946q.011.267,0,.535c0,.514-.08,1.2-.08,1.2m-2.518-1.871a3.928,3.928,0,0,0-3.928-3.883,4,4,0,0,0-4.052,3.883Z" transform="translate(-488.282 -5.966)" fill="#fdfdfd"></path></g></svg>