<svg xmlns="http://www.w3.org/2000/svg" width="134" height="34.31" viewBox="0 0 134 34.31"><g transform="translate(-32 -54)"><path d="M101.213,80.56a5.783,5.783,0,0,1-1.389,2.062,5.94,5.94,0,0,1-2.136,1.272,8.227,8.227,0,0,1-2.739.438,10.779,10.779,0,0,1-7.787-3.4l2.412-3.3a11.533,11.533,0,0,0,2.6,1.881,6.13,6.13,0,0,0,2.912.694,3.165,3.165,0,0,0,1.962-.524,1.737,1.737,0,0,0,.705-1.474v-.064a2.246,2.246,0,0,0-.143-.8,1.636,1.636,0,0,0-.562-.651,5.4,5.4,0,0,0-1.134-.61,17.9,17.9,0,0,0-1.921-.631,22.4,22.4,0,0,1-2.565-.855,7.1,7.1,0,0,1-1.932-1.207,4.71,4.71,0,0,1-1.226-1.774,7,7,0,0,1-.409-2.65V68.9a7.117,7.117,0,0,1,.47-2.629,5.989,5.989,0,0,1,1.328-2.009,5.758,5.758,0,0,1,2.043-1.3A7.048,7.048,0,0,1,94.3,62.5a9.878,9.878,0,0,1,3.74.694,10.527,10.527,0,0,1,3.1,2.009L99.016,68.72a12.589,12.589,0,0,0-2.432-1.528,5.476,5.476,0,0,0-2.37-.566,2.613,2.613,0,0,0-1.778.534,1.674,1.674,0,0,0-.593,1.314v.065a2.057,2.057,0,0,0,.174.9,1.623,1.623,0,0,0,.613.673,5.6,5.6,0,0,0,1.237.577c.521.181,1.175.4,1.972.641a16.653,16.653,0,0,1,2.493.95,6.841,6.841,0,0,1,1.85,1.25,4.812,4.812,0,0,1,1.144,1.753,6.674,6.674,0,0,1,.378,2.394V77.8a7.52,7.52,0,0,1-.49,2.757Z" transform="translate(-8.85 -1.364)" fill="#fdfdfd"></path><path d="M138.221,84.28h-3.556l-7.47-21.371h4.486l4.833,14.959,4.823-14.959h4.384Z" transform="translate(-15.273 -1.429)" fill="#fdfdfd"></path><path d="M185,84.1l-8.92-13.5V84.1H172.06V62.909h3.75l8.656,13.058V62.909h4.006V84.1Z" transform="translate(-22.472 -1.429)" fill="#fdfdfd"></path><path d="M112.14,79.935V75.479h8.9V71.323h-8.9V67.017h9V62.871H108.134V84.092h13.009V79.935Z" transform="translate(-12.215 -1.423)" fill="#fdfdfd"></path><path d="M156.908,79.935V75.479h8.9V71.323h-8.9V67.017h9V62.871H152.9V84.092H165.91V79.935Z" transform="translate(-19.398 -1.423)" fill="#fdfdfd"></path><path d="M61.212,63.584a3.062,3.062,0,0,0,1.308-.268,3.409,3.409,0,0,1-1.308.268Z" transform="translate(-4.687 -1.495)" fill="#fdfdfd"></path><path d="M59.775,59.225l.735-4.83a.344.344,0,0,0-.068-.277A.312.312,0,0,0,60.194,54H36.608A4.718,4.718,0,0,0,32,58.819v15.3a.335.335,0,0,0,.327.343h5.192a2.757,2.757,0,0,0,2-.868,3.017,3.017,0,0,0,.823-2.092V64.1a2.236,2.236,0,0,1,1.962-2H56.525a3.408,3.408,0,0,0,1.308-.267A3.773,3.773,0,0,0,59.775,59.225Z" transform="translate(0 0)" fill="#fdfdfd"></path><path d="M60.262,70.544H55.081a2.763,2.763,0,0,0-2,.861,3.02,3.02,0,0,0-.829,2.089v7.4a2.236,2.236,0,0,1-1.962,2.009H36.257c-1.175,0-4.047.459-4.148,3.43v4.221a.365.365,0,0,0,.075.28.33.33,0,0,0,.252.125H55.98a4.5,4.5,0,0,0,3.289-1.393,4.925,4.925,0,0,0,1.361-3.426v-15.3a.342.342,0,0,0-.124-.23A.318.318,0,0,0,60.262,70.544Z" transform="translate(-0.017 -2.654)" fill="#fdfdfd"></path></g></svg>