<svg xmlns="http://www.w3.org/2000/svg" width="78.007" height="78" viewBox="0 0 78.007 78"><g transform="translate(-181.607 -374.133)"><path d="M192.365,410.238l-10.608-10.6a.519.519,0,0,1,0-.729l5.5-5.5a.531.531,0,0,1,.741,0l16.054,16.054a.506.506,0,0,1-.371.877H192.735a.519.519,0,0,1-.37-.111ZM217.73,384.9l-10.608-10.608a.519.519,0,0,0-.733-.008l-.008.008-5.483,5.5a.494.494,0,0,0-.03.7l.03.03,16.054,16.054a.519.519,0,0,0,.889-.358V385.217a.554.554,0,0,0-.111-.321Zm.149,24.994v-5.5a.518.518,0,0,0-.148-.37l-25.538-25.513a.494.494,0,0,0-.7-.03c-.011.01-.021.02-.031.03l-5.446,5.483a.543.543,0,0,0,0,.741l25.489,25.5a.531.531,0,0,0,.371.161h5.483a.519.519,0,0,0,.519-.506Zm-.149,31.491-10.608,10.6a.519.519,0,0,1-.733.008l-.008-.008-5.483-5.483a.518.518,0,0,1-.007-.733l.007-.008L216.952,429.7a.519.519,0,0,1,.889.358v10.991a.579.579,0,0,1-.111.333Zm-25.365-25.366-10.608,10.608a.531.531,0,0,0,0,.741l5.5,5.483a.519.519,0,0,0,.734.008l.007-.008,16.054-16.054a.519.519,0,0,0-.371-.889H192.735a.58.58,0,0,0-.37.111Zm24.993-.146h-5.483a.519.519,0,0,0-.37.148l-25.489,25.513a.531.531,0,0,0,0,.741l5.5,5.5a.519.519,0,0,0,.729,0l25.489-25.526a.517.517,0,0,0,.148-.37v-5.458a.506.506,0,0,0-.468-.542h-.051Zm31.491.146,10.608,10.608a.519.519,0,0,1,.008.733l-.008.008-5.52,5.483a.506.506,0,0,1-.716.013l-.013-.013-16.054-16.054a.519.519,0,0,1,.37-.889h10.991a.556.556,0,0,1,.334.111ZM223.5,441.382l10.608,10.6a.506.506,0,0,0,.716.013l.013-.013,5.52-5.483a.531.531,0,0,0,0-.741L224.3,429.7a.506.506,0,0,0-.877.358v10.991a.521.521,0,0,0,.074.333Zm-.161-24.97v5.483a.581.581,0,0,0,.148.37L249,447.767a.519.519,0,0,0,.729,0l5.5-5.5a.494.494,0,0,0,.031-.7l-.031-.031-25.5-25.526a.518.518,0,0,0-.371-.148h-5.5a.519.519,0,0,0-.519.518c0,.009,0,.017,0,.025ZM223.5,384.9l10.608-10.608a.506.506,0,0,1,.716-.013l.013.013,5.52,5.5a.518.518,0,0,1,0,.729L224.3,396.566a.506.506,0,0,1-.877-.358V385.217a.5.5,0,0,1,.074-.321Zm25.35,25.342,10.608-10.608a.506.506,0,0,0,.013-.716l-.013-.013-5.52-5.483a.519.519,0,0,0-.729,0l-16.054,16.054a.519.519,0,0,0,.37.877h10.991a.493.493,0,0,0,.334-.111Zm-24.994.171h5.5a.531.531,0,0,0,.37-.161l25.513-25.513a.519.519,0,0,0,.008-.733l-.008-.008-5.483-5.483a.519.519,0,0,0-.733-.007l-.007.007-25.526,25.551a.583.583,0,0,0-.148.371v5.5a.519.519,0,0,0,.519.481Z" fill="#fdfdfd"></path></g></svg>